HIERARCHY
ROOT hip
{
  OFFSET 0 0 0
  CHANNELS 6 Xposition Yposition Zposition Zrotation Yrotation Xrotation
  JOINT abdomen
  {
    OFFSET 0 20.6881 -0.73152
    CHANNELS 3 Zrotation Xrotation Yrotation
    JOINT chest
    {
      OFFSET 0 11.7043 -0.48768
      CHANNELS 3 Zrotation Xrotation Yrotation
      JOINT neck
      {
        OFFSET 0 22.1894 -2.19456
        CHANNELS 3 Zrotation Xrotation Yrotation
        JOINT head
        {
          OFFSET -0.24384 7.07133 1.2192
          CHANNELS 3 Zrotation Xrotation Yrotation
          JOINT leftEye
          {
            OFFSET 4.14528 8.04674 8.04672
            CHANNELS 3 Zrotation Xrotation Yrotation
            End Site
            {
              OFFSET 1 0 0
            }
          }
          JOINT rightEye
          {
            OFFSET -3.6576 8.04674 8.04672
            CHANNELS 3 Zrotation Xrotation Yrotation
            End Site
            {
              OFFSET 1 0 0
            }
          }
        }
      }
      JOINT rCollar
      {
        OFFSET -2.68224 19.2634 -4.8768
        CHANNELS 3 Zrotation Xrotation Yrotation
        JOINT rShldr
        {
          OFFSET -8.77824 -1.95073 1.46304
          CHANNELS 3 Zrotation Xrotation Yrotation
          JOINT rForeArm
          {
            OFFSET -28.1742 -1.7115 0.48768
            CHANNELS 3 Zrotation Xrotation Yrotation
            JOINT rHand
            {
              OFFSET -22.5879 0.773209 7.07136
              CHANNELS 3 Zrotation Xrotation Yrotation
              JOINT rThumb1
              {
                OFFSET -1.2192 -0.487915 3.41376
                CHANNELS 3 Zrotation Xrotation Yrotation
                JOINT rThumb2
                {
                  OFFSET -3.37035 -0.52449 3.41376
                  CHANNELS 3 Zrotation Xrotation Yrotation
                  End Site
                  {
                    OFFSET -1.78271 -1.18214 1.43049
                  }
                }
              }
              JOINT rIndex1
              {
                OFFSET -7.75947 0.938293 5.60832
                CHANNELS 3 Zrotation Xrotation Yrotation
                JOINT rIndex2
                {
                  OFFSET -2.54057 -0.884171 1.56538
                  CHANNELS 3 Zrotation Xrotation Yrotation
                  End Site
                  {
                    OFFSET -1.62519 -0.234802 1.16502
                  }
                }
              }
              JOINT rMid1
              {
                OFFSET -8.24714 1.18213 3.41376
                CHANNELS 3 Zrotation Xrotation Yrotation
                JOINT rMid2
                {
                  OFFSET -3.10165 -0.590103 1.0647
                  CHANNELS 3 Zrotation Xrotation Yrotation
                  End Site
                  {
                    OFFSET -2.48547 -0.328903 0.83742
                  }
                }
              }
              JOINT rRing1
              {
                OFFSET -8.82822 0.546677 1.51678
                CHANNELS 3 Zrotation Xrotation Yrotation
                JOINT rRing2
                {
                  OFFSET -2.60934 -0.819778 -0.0198488
                  CHANNELS 3 Zrotation Xrotation Yrotation
                  End Site
                  {
                    OFFSET -2.33842 -0.294052 0.168128
                  }
                }
              }
              JOINT rPinky1
              {
                OFFSET -8.27202 -0.0477905 -0.4584
                CHANNELS 3 Zrotation Xrotation Yrotation
                JOINT rPinky2
                {
                  OFFSET -1.82734 -0.647385 -0.700984
                  CHANNELS 3 Zrotation Xrotation Yrotation
                  End Site
                  {
                    OFFSET -1.69225 -0.51767 -0.607171
                  }
                }
              }
            }
          }
        }
      }
      JOINT lCollar
      {
        OFFSET 2.68224 19.2634 -4.8768
        CHANNELS 3 Zrotation Xrotation Yrotation
        JOINT lShldr
        {
          OFFSET 8.77824 -1.95073 1.46304
          CHANNELS 3 Zrotation Xrotation Yrotation
          JOINT lForeArm
          {
            OFFSET 28.1742 -1.7115 0.48768
            CHANNELS 3 Zrotation Xrotation Yrotation
            JOINT lHand
            {
              OFFSET 22.5879 0.773209 7.07136
              CHANNELS 3 Zrotation Xrotation Yrotation
              JOINT lThumb1
              {
                OFFSET 1.2192 -0.487915 3.41376
                CHANNELS 3 Zrotation Xrotation Yrotation
                JOINT lThumb2
                {
                  OFFSET 3.37035 -0.52449 3.41376
                  CHANNELS 3 Zrotation Xrotation Yrotation
                  End Site
                  {
                    OFFSET 1.78271 -1.18214 1.43049
                  }
                }
              }
              JOINT lIndex1
              {
                OFFSET 7.75947 0.938293 5.60832
                CHANNELS 3 Zrotation Xrotation Yrotation
                JOINT lIndex2
                {
                  OFFSET 2.54057 -0.884171 1.56538
                  CHANNELS 3 Zrotation Xrotation Yrotation
                  End Site
                  {
                    OFFSET 1.62519 -0.234802 1.16502
                  }
                }
              }
              JOINT lMid1
              {
                OFFSET 8.24714 1.18213 3.41376
                CHANNELS 3 Zrotation Xrotation Yrotation
                JOINT lMid2
                {
                  OFFSET 3.10165 -0.590103 1.0647
                  CHANNELS 3 Zrotation Xrotation Yrotation
                  End Site
                  {
                    OFFSET 2.48547 -0.328903 0.83742
                  }
                }
              }
              JOINT lRing1
              {
                OFFSET 8.82822 0.546677 1.51678
                CHANNELS 3 Zrotation Xrotation Yrotation
                JOINT lRing2
                {
                  OFFSET 2.60934 -0.819778 -0.0198488
                  CHANNELS 3 Zrotation Xrotation Yrotation
                  End Site
                  {
                    OFFSET 2.33842 -0.294052 0.168128
                  }
                }
              }
              JOINT lPinky1
              {
                OFFSET 8.27202 -0.0477905 -0.4584
                CHANNELS 3 Zrotation Xrotation Yrotation
                JOINT lPinky2
                {
                  OFFSET 1.82734 -0.647385 -0.700984
                  CHANNELS 3 Zrotation Xrotation Yrotation
                  End Site
                  {
                    OFFSET 1.69225 -0.51767 -0.607171
                  }
                }
              }
            }
          }
        }
      }
    }
  }
  JOINT rButtock
  {
    OFFSET -8.77824 4.35084 1.2192
    CHANNELS 3 Zrotation Xrotation Yrotation
    JOINT rThigh
    {
      OFFSET 0 -1.70687 -2.19456
      CHANNELS 3 Zrotation Xrotation Yrotation
      JOINT rShin
      {
        OFFSET 0 -36.8199 0.73152
        CHANNELS 3 Zrotation Xrotation Yrotation
        JOINT rFoot
        {
          OFFSET 0.73152 -45.1104 -5.12064
          CHANNELS 3 Zrotation Xrotation Yrotation
          End Site
          {
            OFFSET -1.1221 -3.69964 12.103
          }
        }
      }
    }
  }
  JOINT lButtock
  {
    OFFSET 8.77824 4.35084 1.2192
    CHANNELS 3 Zrotation Xrotation Yrotation
    JOINT lThigh
    {
      OFFSET 0 -1.70687 -2.19456
      CHANNELS 3 Zrotation Xrotation Yrotation
      JOINT lShin
      {
        OFFSET 0 -36.8199 0.73152
        CHANNELS 3 Zrotation Xrotation Yrotation
        JOINT lFoot
        {
          OFFSET -0.73152 -45.1104 -5.12064
          CHANNELS 3 Zrotation Xrotation Yrotation
          End Site
          {
            OFFSET 1.1221 -3.69964 12.103
          }
        }
      }
    }
  }
}
MOTION
Frames:	6
Frame Time:	0.00833333
47.6123 46.9608 58.5672 0.0 0.0 0.0 2.72245 0.000518534 0.0736162 0.750796 0.0131638 0.129922 4.42438e-14 -7.95139e-16 4.96962e-16 1.32689e-13 3.18055e-15 1.49089e-15 -0.0 0.0 0.0 -0.0 0.0 0.0 2.24124e-14 1.94126e-18 4.96962e-16 4.68849e-13 -2.42269e-16 7.7526e-15 8.07617e-12 -2.40311e-12 3.81667e-14 9.21371e-11 2.41772e-12 1.16726e-12 2.17394e-10 3.59452e-14 2.59533e-12 3.75426e-10 6.36111e-14 4.46788e-12 2.17397e-10 3.73715e-14 2.58261e-12 7.73091 5.47488 0.417314 2.17394e-10 3.55825e-14 2.59533e-12 2.90554 0.965183 0.102902 2.17397e-10 3.60794e-14 2.59295e-12 10.2786 0.731801 0.0259123 2.1739e-10 3.81667e-14 2.59851e-12 2.22167 -0.733487 -0.20892 2.23156e-14 4.27076e-18 9.93923e-17 4.66507e-13 -5.46658e-16 5.96354e-15 8.02906e-12 2.41921e-12 1.27222e-14 9.21935e-11 -2.4214e-12 1.18953e-12 2.17421e-10 2.20652e-15 2.57943e-12 3.75484e-10 9.54166e-15 4.45357e-12 2.17416e-10 2.38542e-15 2.58579e-12 -7.73091 5.47488 -0.417314 2.17421e-10 2.5842e-15 2.57625e-12 -2.90554 0.965183 -0.102902 2.17411e-10 2.5842e-15 2.58022e-12 -10.2786 0.731801 -0.0259123 2.17429e-10 5.1684e-15 2.57625e-12 -2.22167 -0.733487 0.20892 -2.03217e-16 0.0 -3.88251e-19 2.53503 -8.65174 -0.274623 0.00738186 10.0929 0.189394 -0.519066 -1.45203 0.0288396 2.03217e-16 0.0 3.88251e-19 1.60993 -1.93183 -0.00956688 0.00858452 -2.07865 0.0705029 0.456692 3.99949 -0.132155
46.4353 50.8525 57.0556 164.51 -57.9422 -156.509 6.1369 5.79329 3.77513 5.6384 0.211995 1.11152 0.219076 3.55677 2.86527 -5.61485 -13.6433 3.19939 -0.0 0.0 0.0 -0.0 0.0 0.0 6.55199e-14 4.64568e-13 -2.78211e-13 21.5574 0.31117 2.99051 -8.92728 -5.79999 11.5398 0.0790428 -6.24963 -0.85964 3.66955e-10 -1.64523e-10 -6.21433e-10 6.45859e-10 -2.92306e-10 -1.07705e-09 3.66958e-10 -1.6452e-10 -6.21444e-10 7.73091 5.47488 0.417314 3.66954e-10 -1.64522e-10 -6.21432e-10 2.90554 0.965183 0.102902 3.66959e-10 -1.64521e-10 -6.21434e-10 10.2786 0.731801 0.0259123 3.66952e-10 -1.6452e-10 -6.21427e-10 2.22167 -0.733487 -0.20892 6.54144e-14 4.64556e-13 -2.78539e-13 -21.0306 10.9141 -6.06919 29.2747 -26.3875 -12.6734 -0.198204 9.9035 -1.31794 3.41828e-11 -3.30774e-10 1.04421e-10 6.11377e-11 -5.59766e-10 1.85103e-10 3.41799e-11 -3.30774e-10 1.04426e-10 -7.73091 5.47488 -0.417314 3.41837e-11 -3.30774e-10 1.04419e-10 -2.90554 0.965183 -0.102902 3.4174e-11 -3.30774e-10 1.04422e-10 -10.2786 0.731801 -0.0259123 3.41903e-11 -3.30772e-10 1.04418e-10 -2.22167 -0.733487 0.20892 -2.03217e-16 0.0 -3.88251e-19 -6.24314 -34.0233 -5.11493 13.0153 37.5326 -6.19366 6.89355 42.0857 -9.06882 2.03217e-16 0.0 3.88251e-19 3.75437 -14.696 -0.944133 1.55812 19.3115 0.0121727 -0.138793 3.33551 -0.043408
45.9179 49.9298 56.872 164.632 -57.5542 -157.504 8.91358 11.7598 7.83011 10.8253 0.445491 2.15195 0.0695676 7.27936 5.94548 -9.75169 -27.873 7.25729 -0.0 0.0 0.0 -0.0 0.0 0.0 1.13e-13 9.83602e-13 -5.90248e-13 44.2917 0.615698 6.13593 -15.8465 -11.1309 24.087 -0.0459287 -12.8186 -1.7985 5.39877e-10 -3.53086e-10 -1.3121e-09 9.57944e-10 -6.27082e-10 -2.27408e-09 5.39879e-10 -3.5308e-10 -1.31211e-09 7.73091 5.47488 0.417314 5.39874e-10 -3.53082e-10 -1.3121e-09 2.90554 0.965183 0.102902 5.39879e-10 -3.53082e-10 -1.3121e-09 10.2786 0.731801 0.0259123 5.39874e-10 -3.53082e-10 -1.31209e-09 2.22167 -0.733487 -0.20892 1.12883e-13 9.83573e-13 -5.90502e-13 -40.6633 22.0879 -13.2132 42.0416 -49.1133 -37.2437 0.117491 20.3517 -2.84834 -1.75384e-10 -7.24348e-10 2.22087e-10 -2.98401e-10 -1.22665e-09 3.93927e-10 -1.75385e-10 -7.24348e-10 2.2209e-10 -7.73091 5.47488 -0.417314 -1.75383e-10 -7.24347e-10 2.22088e-10 -2.90554 0.965183 -0.102902 -1.75392e-10 -7.24348e-10 2.22089e-10 -10.2786 0.731801 -0.0259123 -1.75378e-10 -7.24346e-10 2.22084e-10 -2.22167 -0.733487 0.20892 -2.03217e-16 0.0 -3.88251e-19 -24.5199 -59.9677 -17.04 41.7862 64.8165 -24.9339 87.5618 76.0244 -85.5363 2.03217e-16 0.0 3.88251e-19 5.52032 -28.194 -2.13361 3.25665 41.9981 -0.0819637 -0.766252 2.62633 0.0503071
45.4406 49.127 56.7072 164.65 -57.22 -158.296 10.6483 17.0792 11.6403 15.3932 0.608899 3.07486 -0.421126 10.5627 8.72826 -11.0938 -40.3363 12.2758 -0.0 0.0 0.0 -0.0 0.0 0.0 1.51735e-13 1.3937e-12 -8.35626e-13 64.5753 0.923345 8.97256 -20.0629 -14.5672 35.7553 -0.352023 -18.7315 -2.70707 6.66079e-10 -4.93641e-10 -1.86949e-09 1.18672e-09 -8.77045e-10 -3.24009e-09 6.66081e-10 -4.93634e-10 -1.8695e-09 7.73091 5.47488 0.417314 6.66075e-10 -4.93636e-10 -1.86949e-09 2.90554 0.965183 0.102902 6.66081e-10 -4.93636e-10 -1.86949e-09 10.2786 0.731801 0.0259123 6.66076e-10 -4.93637e-10 -1.86948e-09 2.22167 -0.733487 -0.20892 1.51612e-13 1.39366e-12 -8.35817e-13 -55.31 31.1488 -21.0197 30.9911 -54.9338 -76.754 0.945682 29.6427 -4.48251 -3.32293e-10 -9.92328e-10 3.08103e-10 -5.67555e-10 -1.67932e-09 5.46401e-10 -3.32292e-10 -9.92328e-10 3.08105e-10 -7.73091 5.47488 -0.417314 -3.32292e-10 -9.92327e-10 3.08105e-10 -2.90554 0.965183 -0.102902 -3.32299e-10 -9.92328e-10 3.08106e-10 -10.2786 0.731801 -0.0259123 -3.32287e-10 -9.92326e-10 3.081e-10 -2.22167 -0.733487 0.20892 -2.03217e-16 0.0 -3.88251e-19 -83.0868 -76.8891 -68.3305 128.619 74.6335 -100.617 161.192 45.7558 -150.321 2.03217e-16 0.0 3.88251e-19 6.46177 -40.1755 -3.56162 4.87536 62.0915 -0.227428 -1.32359 2.00753 0.133744
45.001 48.391 56.5285 164.643 -56.8463 -159.051 11.399 21.061 14.4244 18.4317 0.597997 3.70377 -0.995026 12.8524 10.6412 -9.74789 -48.9264 17.3122 -0.0 0.0 0.0 -0.0 0.0 0.0 1.6861e-13 1.53145e-12 -9.1436e-13 78.7885 1.24655 11.0366 -22.1324 -15.9573 44.1486 -0.697335 -23.0202 -3.42343 6.75483e-10 -5.14178e-10 -2.09368e-09 1.20725e-09 -9.14972e-10 -3.62853e-09 6.75485e-10 -5.1417e-10 -2.09368e-09 7.73091 5.47488 0.417314 6.75478e-10 -5.14172e-10 -2.09367e-09 2.90554 0.965183 0.102902 6.75486e-10 -5.14172e-10 -2.09367e-09 10.2786 0.731801 0.0259123 6.75481e-10 -5.14173e-10 -2.09366e-09 2.22167 -0.733487 -0.20892 1.6849e-13 1.53142e-12 -9.14509e-13 -63.3641 36.4254 -27.717 25.0426 -47.9262 -99.7939 1.91899 36.1044 -5.88318 -3.57554e-10 -9.46323e-10 3.14993e-10 -6.10746e-10 -1.59645e-09 5.58e-10 -3.57552e-10 -9.46324e-10 3.14996e-10 -7.73091 5.47488 -0.417314 -3.57553e-10 -9.46322e-10 3.14996e-10 -2.90554 0.965183 -0.102902 -3.5756e-10 -9.46323e-10 3.14996e-10 -10.2786 0.731801 -0.0259123 -3.57549e-10 -9.46322e-10 3.14989e-10 -2.22167 -0.733487 0.20892 -2.03217e-16 0.0 -3.88251e-19 -148.575 -71.1965 -127.797 174.169 62.6012 -137.249 175.307 19.2341 -154.324 2.03217e-16 0.0 3.88251e-19 6.57638 -48.4132 -4.89017 6.06211 75.7024 -0.343491 -1.7101 1.61468 0.191694
44.54 47.6616 56.3482 164.461 -56.4927 -159.757 11.5781 23.4272 15.4688 19.2792 0.329054 3.92044 -1.34011 13.8182 11.2727 -7.86094 -52.6115 19.8989 -0.0 0.0 0.0 -0.0 0.0 0.0 1.57862e-13 1.2217e-12 -7.18528e-13 84.5542 1.62374 12.013 -22.8272 -16.2854 47.5733 -0.892339 -25.0645 -3.78441 4.34022e-10 -2.89681e-10 -1.81971e-09 7.84938e-10 -5.22054e-10 -3.15433e-09 4.34025e-10 -2.89674e-10 -1.81972e-09 7.73091 5.47488 0.417314 4.34017e-10 -2.89674e-10 -1.81971e-09 2.90554 0.965183 0.102902 4.34025e-10 -2.89674e-10 -1.81971e-09 10.2786 0.731801 0.0259123 4.34021e-10 -2.89675e-10 -1.8197e-09 2.22167 -0.733487 -0.20892 1.57762e-13 1.22169e-12 -7.18671e-13 -65.3978 37.6932 -30.8086 25.1273 -43.7759 -105.939 2.41976 38.678 -6.5274 -1.10452e-10 -2.68191e-10 2.37377e-10 -1.84203e-10 -4.27259e-10 4.14809e-10 -1.10449e-10 -2.68191e-10 2.37385e-10 -7.73091 5.47488 -0.417314 -1.10451e-10 -2.6819e-10 2.3738e-10 -2.90554 0.965183 -0.102902 -1.10457e-10 -2.6819e-10 2.3738e-10 -10.2786 0.731801 -0.0259123 -1.10448e-10 -2.6819e-10 2.37373e-10 -2.22167 -0.733487 0.20892 -2.03217e-16 0.0 -3.88251e-19 -161.363 -66.0565 -137.947 -176.34 57.0533 -143.363 -179.66 9.48867 -154.919 2.03217e-16 0.0 3.88251e-19 6.48516 -51.4522 -5.3365 5.99449 80.1932 0.212788 -1.86005 1.54162 0.214104
